<?xml version="1.0" encoding="UTF-8"?><svg id="Layer_1" xmlns="http://www.w3.org/2000/svg" viewBox="0 0 300 56"><defs><style>.cls-1{fill:#38b04c;}.cls-2{fill:#26306b;}</style></defs><path class="cls-2" d="m106.16,17c.09-.07.15-.16.17-.26l.45-1.97c.02-.1,0-.19-.05-.26-.06-.08-.15-.11-.26-.11h-6.01c-.1,0-.19.04-.28.11-.08.07-.14.16-.16.26l-.45,1.97c-.02.1,0,.19.04.26.05.08.12.11.22.11h6.01c.12,0,.22-.04.31-.11Z"/><path class="cls-2" d="m117.76,17c.08-.07.14-.16.16-.26l.45-1.97c.02-.1,0-.19-.04-.26-.05-.08-.12-.11-.22-.11h-6.34c-.82,0-1.58.29-2.31.87-.72.58-1.18,1.29-1.37,2.12l-2.84,12.45c-.03.12-.02.21.03.29.05.08.12.11.22.11h2c.1,0,.19-.04.28-.11.08-.07.14-.17.17-.29l2.81-12.33c.03-.12.09-.21.18-.29.09-.08.18-.11.26-.11h6.29c.1,0,.19-.04.28-.11Z"/><path class="cls-2" d="m132.67,27.52h-13.25c-.1,0-.17-.04-.22-.11-.05-.07-.06-.16-.04-.26l.67-2.82c.04-.18.14-.34.29-.46.15-.12.32-.19.5-.19h8.38c.13,0,.26-.05.38-.14s.2-.2.23-.34c.04-.18.08-.37.13-.56.04-.19.09-.4.15-.64.05-.23.1-.42.15-.55.03-.13,0-.25-.07-.34-.08-.09-.19-.14-.32-.14h-8.53c-.9,0-1.74.32-2.52.95-.78.63-1.28,1.41-1.49,2.32l-1.27,5.59c-.03.12-.01.21.03.29.05.08.12.11.22.11h15.95c.13,0,.26-.05.37-.14.11-.09.19-.21.24-.36l.39-1.72c.05-.13.03-.25-.04-.35-.08-.1-.18-.15-.32-.15Z"/><path class="cls-2" d="m119.15,17.12h16.02c.13,0,.26-.05.37-.14.11-.09.18-.2.21-.34.19-.78.34-1.36.42-1.75.03-.13,0-.25-.07-.35-.08-.1-.18-.15-.32-.15h-16.02c-.12,0-.23.04-.33.12-.1.08-.17.18-.19.3l-.43,1.87c-.03.12,0,.22.06.3.06.08.15.12.27.12Z"/><path class="cls-2" d="m148.97,27.52h-8.76c-1.31,0-2.32-.51-3.02-1.52-.7-1.01-.89-2.24-.56-3.67.33-1.45,1.06-2.68,2.19-3.69,1.13-1.01,2.38-1.52,3.77-1.52h8.76c.1,0,.19-.04.28-.11.08-.07.14-.16.16-.26l.44-1.95c.03-.12.01-.21-.03-.29-.05-.08-.12-.11-.22-.11h-9.01c-2,0-3.88.77-5.64,2.31-1.77,1.54-2.9,3.4-3.39,5.58l-.02.07c-.5,2.18-.21,4.04.85,5.58,1.06,1.54,2.59,2.31,4.59,2.31h9.01c.1,0,.19-.04.28-.11.08-.07.14-.17.16-.29l.44-1.92c.02-.1.01-.19-.04-.27-.05-.08-.12-.12-.22-.12Z"/><path class="cls-1" d="m189.53,20.31c.4-1.76.34-3.18-.19-4.25-.53-1.07-1.39-1.61-2.59-1.61h-12.4c-.1,0-.19.04-.28.11-.08.07-.14.17-.17.29l-3.43,15.05c-.03.12-.01.21.03.29.05.08.12.11.22.11h2.02c.1,0,.19-.04.28-.11.08-.07.14-.17.16-.29l.76-3.34c.03-.12.08-.21.17-.29.08-.07.18-.11.28-.11l9.45.03c.68,0,1.33-.15,1.94-.46.61-.31,1.12-.68,1.52-1.12.4-.44.76-.94,1.09-1.51.33-.57.58-1.07.75-1.52.17-.45.3-.86.38-1.25Zm-2.67,0c-.06.27-.15.56-.27.87-.12.32-.29.65-.49,1.01-.21.36-.47.66-.78.9-.31.24-.64.36-.99.36h-9.31c-.1,0-.17-.04-.22-.11-.05-.07-.06-.17-.03-.29l1.25-5.49c.03-.12.08-.21.17-.29.08-.08.18-.11.28-.11h9.43c.55,0,.9.28,1.07.85.16.57.13,1.33-.09,2.3Z"/><path class="cls-1" d="m204.13,14.42h-12.4c-.1,0-.19.04-.28.11-.08.08-.14.16-.16.26l-.43,1.9c-.03.13-.01.24.05.32.06.08.16.12.3.12h12.05c.55,0,.9.28,1.07.85.16.57.13,1.33-.09,2.3-.06.27-.15.55-.27.86-.12.31-.28.64-.49,1.01-.21.37-.47.67-.78.9-.31.23-.64.35-.99.35h-9.53c-.8,0-1.54.28-2.21.84-.68.56-1.1,1.23-1.28,2.01l-.83,3.62c-.03.12-.01.21.03.29.05.08.12.11.22.11h2.02c.1,0,.19-.04.28-.11.08-.07.14-.17.16-.29l.76-3.34c.03-.12.08-.21.17-.29.08-.07.18-.11.28-.11h5.79c.24.03.42.12.54.27l2.5,3.49c.18.23.42.35.72.35h2.77c.12,0,.21-.05.27-.16.07-.11.07-.2,0-.29l-2.39-3.52c-.06-.1-.02-.17.13-.22.7-.15,1.35-.46,1.96-.94.61-.47,1.1-1.02,1.47-1.63.37-.61.67-1.19.89-1.72.22-.53.38-1.02.49-1.47.4-1.76.34-3.18-.19-4.25s-1.39-1.61-2.59-1.61Z"/><path class="cls-1" d="m225.27,16.54c-1.25-1.45-3.02-2.17-5.33-2.17h-2.05c-2.3,0-4.45.72-6.44,2.17-1.99,1.45-3.25,3.19-3.77,5.22l-.29,1.12c-.52,2.03-.16,3.77,1.09,5.22,1.25,1.45,3.02,2.17,5.33,2.17h2.05c2.3,0,4.45-.72,6.44-2.17,1.99-1.45,3.25-3.19,3.77-5.22l.29-1.12c.52-2.03.16-3.77-1.09-5.22Zm-2.12,5.69l-.07.27c-.38,1.48-1.26,2.74-2.64,3.79-1.38,1.05-2.86,1.57-4.43,1.57h-1.1c-1.59,0-2.81-.52-3.65-1.57s-1.08-2.31-.7-3.79l.07-.27c.38-1.48,1.26-2.74,2.64-3.79,1.38-1.05,2.87-1.57,4.46-1.57h1.1c1.57,0,2.78.52,3.63,1.57s1.08,2.31.7,3.79Z"/><path class="cls-2" d="m170.43,14.51c-.05-.08-.12-.11-.22-.11h-2.02c-.1,0-.19.04-.28.11-.08.07-.14.17-.17.29l-1.41,6.19h-7.51c-.95,0-1.84.28-2.64.84-.68.47-1.23.99-1.5,1.62l.55-2.46h0l1.41-6.19c.03-.12.01-.21-.03-.29-.05-.08-.12-.11-.22-.11h-2.02c-.1,0-.19.04-.28.11-.08.07-.14.17-.17.29l-3.43,15.05c-.03.12-.01.21.03.29.05.08.12.11.22.11h2.02c.1,0,.19-.04.28-.11.08-.07.14-.17.16-.29l1.44-6.3h.02s3.26,0,3.26,0h.86s0,0,0,0h6.97l-1.44,6.3c-.03.12-.01.21.03.29.05.08.12.11.22.11h2.02c.1,0,.19-.04.28-.11.08-.07.14-.17.16-.29l3.43-15.05c.03-.12.01-.21-.03-.29Z"/><path class="cls-2" d="m122.42,36.05c.02-.1.09-.15.19-.15h5.18c.1,0,.14.06.12.15l-.22,1.02c-.02.09-.09.15-.19.15h-3.54c-.21,0-.37.13-.41.33l-.32,1.5c-.04.2.06.33.27.33h2.67c.1,0,.14.06.12.15l-.22,1.02c-.02.1-.09.15-.19.15h-2.67c-.21,0-.37.13-.41.33l-.32,1.5c-.04.2.06.33.27.33h3.54c.1,0,.14.06.12.15l-.22,1.02c-.02.1-.09.15-.19.15h-5.18c-.1,0-.14-.06-.12-.15l1.73-8.01Z"/><path class="cls-2" d="m130.93,35.9h2.01c.33,0,.56,0,.69.01,2.62.18,3.52,2.16,3.1,4.15-.43,1.98-2.18,3.91-4.89,4.15-.14.01-.37.01-.69.01h-2.01c-.1,0-.14-.06-.12-.15l1.73-8.01c.02-.1.09-.15.19-.15Zm-.14,6.64c-.04.2.06.33.27.33h.32c.35,0,.56,0,.69-.01,3.56-.33,4.6-5.63.87-5.63h-.66c-.21,0-.37.13-.41.33l-1.08,4.98Z"/><path class="cls-2" d="m141.94,44.5c-1.71,0-3.19-1.15-2.69-3.45l1.08-5c.02-.1.09-.15.19-.15h1.14c.1,0,.14.06.12.15l-1.08,5c-.28,1.29.58,1.94,1.56,1.94s2.12-.64,2.4-1.94l1.08-5c.02-.1.09-.15.19-.15h1.14c.08,0,.14.06.12.15l-1.08,5c-.5,2.29-2.46,3.45-4.18,3.45Z"/><path class="cls-2" d="m154.4,35.72c.85,0,1.59.33,2.24.75.07.05.05.14,0,.21l-.85.91c-.08.08-.15.1-.23.04-.31-.26-.8-.5-1.45-.5-3.82,0-5.09,5.84-1.27,5.84.79,0,1.33-.24,1.67-.48.09-.06.17-.05.2.02l.47.9c.03.07,0,.17-.08.21-.76.5-1.52.75-2.58.75-2.92,0-3.91-2.17-3.44-4.34.47-2.17,2.39-4.34,5.32-4.34Z"/><path class="cls-2" d="m157.64,44.07l5.61-8.18c.04-.06.13-.11.21-.11s.14.05.15.11l2.06,8.18c.02.08-.03.14-.13.14h-1.19c-.1,0-.18-.06-.2-.14l-.18-.72c-.05-.18-.21-.3-.42-.3h-3.34c-.21,0-.43.12-.55.3l-.5.72c-.05.08-.16.14-.25.14h-1.2c-.1,0-.12-.06-.07-.14Zm3.48-2.35h2.09c.21,0,.3-.12.26-.31l-.59-2.33c-.03-.1-.07-.14-.11-.14s-.11.05-.18.14l-1.61,2.33c-.13.19-.07.31.14.31Z"/><path class="cls-2" d="m168.06,37.08l.22-1.02c.02-.1.09-.15.19-.15h6.67c.1,0,.14.06.12.15l-.22,1.02c-.02.09-.09.15-.19.15h-2.27c-.21,0-.38.13-.42.33l-1.41,6.5c-.02.1-.09.15-.19.15h-1.14c-.08,0-.14-.06-.12-.15l1.41-6.5c.04-.2-.06-.33-.27-.33h-2.26c-.1,0-.14-.06-.12-.15Z"/><path class="cls-2" d="m178.04,35.9h1.14c.1,0,.14.06.12.15l-1.73,8.01c-.02.1-.09.15-.19.15h-1.14c-.1,0-.14-.06-.12-.15l1.73-8.01c.02-.1.09-.15.19-.15Z"/><path class="cls-2" d="m186.62,35.71c2.18,0,4.06,1.45,3.43,4.35-.63,2.9-3.13,4.35-5.31,4.35s-4.07-1.45-3.44-4.35,3.13-4.35,5.32-4.35Zm-1.57,7.26c1.47,0,3.16-.96,3.58-2.91s-.85-2.91-2.32-2.91-3.16.96-3.58,2.91.84,2.91,2.32,2.91Z"/><path class="cls-2" d="m193.78,36.05c.02-.1.09-.15.19-.15h.18c.08,0,.18.05.23.11l3.59,4.88c.05.06.08.08.13.08s.1-.06.12-.18l1.03-4.74c.02-.1.09-.15.19-.15h1.14c.1,0,.14.06.12.15l-1.73,8.01c-.02.1-.09.15-.19.15h-.17c-.1,0-.2-.05-.24-.12l-3.59-4.89c-.04-.06-.08-.08-.13-.08s-.1.06-.12.18l-1.03,4.76c-.02.1-.09.15-.19.15h-1.14c-.1,0-.14-.06-.12-.15l1.73-8.01Z"/><path class="cls-1" d="m94.37,18.11l-2.75,3.16c-.39.45-.56,1.03-.48,1.62.02.13.03.26.04.4.61,6.44-4.24,12.14-10.76,12.51-5.93.34-11.2-4.02-11.99-9.9-.87-6.47,3.82-12.31,10.26-12.92,2.91-.28,5.66.56,7.85,2.16.83.61,1.97.55,2.75-.12l1.91-1.63c-3.3-3.41-8.11-5.3-13.21-4.69-8.25.98-14.38,8.33-13.87,16.62.57,9.28,8.98,16.09,18.23,14.63,7.9-1.24,13.66-8.33,13.28-16.31-.09-1.97-.54-3.83-1.27-5.53Z"/><path class="cls-1" d="m97.26,11.37l-16.01,11.43c-.8.57-1.85.66-2.74.24l-5.1-2.43c-.29-.14-.58.2-.4.47l6.09,9.26c.42.64,1.32.7,1.82.13l16.66-18.74c.19-.21-.08-.52-.31-.36Z"/></svg>