<svg width="41" height="40" viewBox="0 0 41 40" fill="none" xmlns="http://www.w3.org/2000/svg">
<g filter="url(#filter0_d_381_476)">
<path d="M32.0021 15.9992C32.0021 9.37225 26.6299 4 20.002 4C13.3744 4 8.00195 9.37225 8.00195 15.9992C8.00195 22.6262 13.3744 28 20.002 28C26.63 28 32.0021 22.6262 32.0021 15.9992Z" fill="#395196"/>
<path d="M21.0595 13.1575V12.0208C21.0595 11.4672 21.429 11.3379 21.6876 11.3379C21.9472 11.3379 23.283 11.3379 23.283 11.3379V8.90374L21.0866 8.89404C18.6486 8.89404 18.095 10.7105 18.095 11.8734V13.1575H16.6855V16.0009H18.1072C18.1072 19.2228 18.1072 23.1077 18.1072 23.1077H20.9497C20.9497 23.1077 20.9497 19.1832 20.9497 16.0009H23.0595L23.319 13.1575H21.0595Z" fill="white"/>
</g>
<defs>
<filter id="filter0_d_381_476" x="0.00195312" y="0" width="40" height="40" filterUnits="userSpaceOnUse" color-interpolation-filters="sRGB">
<feFlood flood-opacity="0" result="BackgroundImageFix"/>
<feColorMatrix in="SourceAlpha" type="matrix" values="0 0 0 0 0 0 0 0 0 0 0 0 0 0 0 0 0 0 127 0" result="hardAlpha"/>
<feOffset dy="4"/>
<feGaussianBlur stdDeviation="4"/>
<feColorMatrix type="matrix" values="0 0 0 0 0 0 0 0 0 0.0627451 0 0 0 0 0.160784 0 0 0 0.1 0"/>
<feBlend mode="normal" in2="BackgroundImageFix" result="effect1_dropShadow_381_476"/>
<feBlend mode="normal" in="SourceGraphic" in2="effect1_dropShadow_381_476" result="shape"/>
</filter>
</defs>
</svg>
